<?xml version="1.0" encoding="UTF-8" standalone="no"?>
<!-- Created with Inkscape (http://www.inkscape.org/) -->

<svg
   xmlns:dc="http://purl.org/dc/elements/1.1/"
   xmlns:cc="http://creativecommons.org/ns#"
   xmlns:rdf="http://www.w3.org/1999/02/22-rdf-syntax-ns#"
   xmlns:svg="http://www.w3.org/2000/svg"
   xmlns="http://www.w3.org/2000/svg"
   xmlns:sodipodi="http://sodipodi.sourceforge.net/DTD/sodipodi-0.dtd"
   xmlns:inkscape="http://www.inkscape.org/namespaces/inkscape"
   sodipodi:docname="logo.dxf"
   inkscape:version="0.48.3.1 r9886"
   version="1.1"
   id="svg2"
   height="531.49603"
   width="531.49603">
  <sodipodi:namedview
     id="base"
     pagecolor="#ffffff"
     bordercolor="#666666"
     borderopacity="1.0"
     inkscape:pageopacity="0.0"
     inkscape:pageshadow="2"
     inkscape:zoom="0.98994949"
     inkscape:cx="181.0062"
     inkscape:cy="288.05072"
     inkscape:document-units="px"
     inkscape:current-layer="svg2"
     showgrid="false"
     units="mm"
     showguides="true"
     inkscape:guide-bbox="true"
     inkscape:window-width="1600"
     inkscape:window-height="876"
     inkscape:window-x="0"
     inkscape:window-y="24"
     inkscape:window-maximized="1">
    <sodipodi:guide
       id="guide3054"
       position="265.74803,548.51283"
       orientation="1,0" />
  </sodipodi:namedview>
  <defs
     id="defs4" />
  <metadata
     id="metadata7">
    <rdf:RDF>
      <cc:Work
         rdf:about="">
        <dc:format>image/svg+xml</dc:format>
        <dc:type
           rdf:resource="http://purl.org/dc/dcmitype/StillImage" />
        <dc:title></dc:title>
      </cc:Work>
    </rdf:RDF>
  </metadata>
  <g
     transform="translate(0,-520.86614)"
     id="layer1"
     inkscape:groupmode="layer"
     inkscape:label="Layer 1">
    <path
       sodipodi:nodetypes="ccssssssssssccscccssccssssssssssccc"
       inkscape:connector-curvature="0"
       id="path3050"
       transform="translate(0,520.86614)"
       d="M265.75 0.8125L247.949339688 2.91817744531L239.411607227 4.08355368262L231.1706425 5.6102612625L223.267722461 7.71302993457L215.744124063 10.6065894484L208.641124258 14.5056695537L202.0 19.625L193.93412375 27.3227725L190.260828906 31.498638125L187.03125 36.0L182.724255938 43.8117614062L179.18979 52.03555125L176.224491562 60.5150029687L173.625 69.09375L169.644527031 84.6869579687L166.53255875 100.49622875L164.099623594 116.440197656L162.15625 132.4375L160.440009375 153.156221562L159.5778575 173.94009L158.8125 215.5625L158.900943281 232.217973594L159.39592875 248.89155125L159.528887344 265.541228281L158.53125 282.125L157.0513275 297.61156875L155.3582325 305.058930781L153.956034141 308.535459551L152.0625 311.78125L149.3700425 314.572037812L146.0288275 316.695215L138.78125 320.25L130.780393437 323.922038906L122.5031225 327.06565125L114.349290313 330.410812969L106.71875 334.6875L98.8415145312 340.446751875L91.38505625 346.8384675L84.7516948437 353.975011875L79.34375 361.96875L77.1738391016 366.409038145L75.4108071875 371.033338906L72.9155 380.68980625L71.4780678125 390.649807969L70.71875 400.625L70.48868125 411.460061875L71.0939925 422.32479L72.69137 433.058373125L75.4375 443.5L78.449469416 450.55762918L82.2697210156 457.063401562L86.7663993262 463.052311914L91.807648875 468.559355L97.2616141895 473.619525586L102.996439797 478.267818437L114.78125 486.46875L131.962871406 497.049134375L149.67382875 506.80795L167.969746719 515.287790625L177.354448652 518.905155859L186.90625 522.03125L195.58562791 524.337178711L204.380420156 526.177492188L222.22398875 528.6864375L240.252437969 530.008414062L258.28125 530.59375L265.75 530.68745L265.75 530.78115L273.21875 530.68745L291.247562031 530.102114063L309.27601125 528.7801375L327.119579844 526.271192187L335.91437209 524.430878711L344.59375 522.12495L354.145551348 518.998859961L363.530253281 515.381504687L381.82617125 506.9016875L399.537128594 497.142876563L416.71875 486.56245L429.332438125 477.598924531L435.143191406 472.862308105L440.5174325 467.85455625L445.375822656 462.499744238L449.639023125 456.721947344L453.227695156 450.44524084L456.0625 443.5937L458.80863 433.152073125L460.4060075 422.41849L461.01131875 411.553761875L460.78125 400.7187L460.021932188 390.743507969L458.5845 380.78350625L456.089192813 371.127038906L454.326160898 366.502738145L452.15625 362.06245L446.748305156 354.068711875L440.11494375 346.9321675L432.658485469 340.540451875L424.78125 334.7812L417.150709688 330.504512969L408.9968775 327.15935125L400.719606562 324.015738906L392.71875 320.3437L385.4711725 316.788915L382.1299575 314.665737812L379.4375 311.87495L377.543965859 308.629159551L376.1417675 305.152630781L374.4486725 297.70526875L372.96875 282.2187L371.971112656 265.634928281L372.10407125 248.98525125L372.599056719 232.311673594L372.6875 215.6562L371.9221425 174.03379L371.059990625 153.249921562L369.34375 132.5312L367.400376406 116.533926562L364.96744125 100.5899725L361.855472969 84.7807071875L357.875 69.1875L355.275508437 60.6087529687L352.31021 52.12930125L348.775744062 43.9055114062L344.46875 36.09375L341.239171094 31.592388125L337.56587625 27.4165225L329.5 19.71875L323.108183066 14.7218764764L315.652284531 10.7050024047L307.439069043 7.55602963379L298.77530125 5.1628600125L289.967745801 3.41339538965L281.323167344 2.19553761406L265.75 0.90625L265.75 0.8125"
       style="fill:none;stroke:#000000;stroke-width:1.19698024px;stroke-linecap:butt;stroke-linejoin:miter;stroke-opacity:1" />
  </g>
</svg>
