  0
SECTION
  2
HEADER
  9
$ACADVER
  1
AC1014
  9
$HANDSEED
  5
FFFF
  9
$MEASUREMENT
 70
     1
  0
ENDSEC
  0
SECTION
  2
TABLES
  0
TABLE
  2
VPORT
  5
8
330
0
100
AcDbSymbolTable
 70
     4
  0
VPORT
  5
2E
330
8
100
AcDbSymbolTableRecord
100
AcDbViewportTableRecord
  2
*ACTIVE
 70
     0
 10
0.0
 20
0.0
 11
1.0
 21
1.0
 12
210.0
 22
148.5
 13
0.0
 23
0.0
 14
10.0
 24
10.0
 15
10.0
 25
10.0
 16
0.0
 26
0.0
 36
1.0
 17
0.0
 27
0.0
 37
0.0
 40
341.0
 41
1.24
 42
50.0
 43
0.0
 44
0.0
 50
0.0
 51
0.0
 71
     0
 72
   100
 73
     1
 74
     3
 75
     0
 76
     0
 77
     0
 78
     0
  0
ENDTAB
  0
TABLE
  2
LTYPE
  5
5
330
0
100
AcDbSymbolTable
 70
     1
  0
LTYPE
  5
14
330
5
100
AcDbSymbolTableRecord
100
AcDbLinetypeTableRecord
  2
BYBLOCK
 70
     0
  3

 72
    65
 73
     0
 40
0.0
  0
LTYPE
  5
15
330
5
100
AcDbSymbolTableRecord
100
AcDbLinetypeTableRecord
  2
BYLAYER
 70
     0
  3

 72
    65
 73
     0
 40
0.0
  0
LTYPE
  5
16
330
5
100
AcDbSymbolTableRecord
100
AcDbLinetypeTableRecord
  2
CONTINUOUS
 70
     0
  3
Solid line
 72
    65
 73
     0
 40
0.0
  0
ENDTAB
  0
TABLE
  2
LAYER
  5
2
100
AcDbSymbolTable
 70
2
  0
LAYER
  5
50
100
AcDbSymbolTableRecord
100
AcDbLayerTableRecord
  2
0
 70
0
  6
CONTINUOUS
  0
LAYER
  5
51
100
AcDbSymbolTableRecord
100
AcDbLayerTableRecord
  2
Layer_1
 70
0
  6
CONTINUOUS
  0
ENDTAB
  0
TABLE
  2
STYLE
  5
3
330
0
100
AcDbSymbolTable
 70
     1
  0
STYLE
  5
11
330
3
100
AcDbSymbolTableRecord
100
AcDbTextStyleTableRecord
  2
STANDARD
 70
     0
 40
0.0
 41
1.0
 50
0.0
 71
     0
 42
2.5
  3
txt
  4

  0
ENDTAB
  0
TABLE
  2
VIEW
  5
6
330
0
100
AcDbSymbolTable
 70
     0
  0
ENDTAB
  0
TABLE
  2
UCS
  5
7
330
0
100
AcDbSymbolTable
 70
     0
  0
ENDTAB
  0
TABLE
  2
APPID
  5
9
330
0
100
AcDbSymbolTable
 70
     2
  0
APPID
  5
12
330
9
100
AcDbSymbolTableRecord
100
AcDbRegAppTableRecord
  2
ACAD
 70
     0
  0
ENDTAB
  0
TABLE
  2
DIMSTYLE
  5
A
330
0
100
AcDbSymbolTable
 70
     1
  0
DIMSTYLE
105
27
330
A
100
AcDbSymbolTableRecord
100
AcDbDimStyleTableRecord
  2
ISO-25
 70
     0
  3

  4

  5

  6

  7

 40
1.0
 41
2.5
 42
0.625
 43
3.75
 44
1.25
 45
0.0
 46
0.0
 47
0.0
 48
0.0
140
2.5
141
2.5
142
0.0
143
0.03937007874016
144
1.0
145
0.0
146
1.0
147
0.625
 71
     0
 72
     0
 73
     0
 74
     0
 75
     0
 76
     0
 77
     1
 78
     8
170
     0
171
     3
172
     1
173
     0
174
     0
175
     0
176
     0
177
     0
178
     0
270
     2
271
     2
272
     2
273
     2
274
     3
340
11
275
     0
280
     0
281
     0
282
     0
283
     0
284
     8
285
     0
286
     0
287
     3
288
     0
  0
ENDTAB
  0
TABLE
  2
BLOCK_RECORD
  5
1
330
0
100
AcDbSymbolTable
 70
     1
  0
BLOCK_RECORD
  5
1F
330
1
100
AcDbSymbolTableRecord
100
AcDbBlockTableRecord
  2
*MODEL_SPACE
  0
BLOCK_RECORD
  5
1B
330
1
100
AcDbSymbolTableRecord
100
AcDbBlockTableRecord
  2
*PAPER_SPACE
  0
ENDTAB
  0
ENDSEC
  0
SECTION
  2
BLOCKS
  0
BLOCK
  5
20
330
1F
100
AcDbEntity
  8
0
100
AcDbBlockBegin
  2
*MODEL_SPACE
 70
     0
 10
0.0
 20
0.0
 30
0.0
  3
*MODEL_SPACE
  1

  0
ENDBLK
  5
21
330
1F
100
AcDbEntity
  8
0
100
AcDbBlockEnd
  0
BLOCK
  5
1C
330
1B
100
AcDbEntity
 67
     1
  8
0
100
AcDbBlockBegin
  2
*PAPER_SPACE
  1

  0
ENDBLK
  5
1D
330
1B
100
AcDbEntity
 67
     1
  8
0
100
AcDbBlockEnd
  0
ENDSEC
  0
SECTION
  2
ENTITIES
  0
LWPOLYLINE
  5
100
100
AcDbEntity
  8
Layer_1
 62
7
100
AcDbPolyline
 90
124
 70
0
 10
0.000000
 20
-0.071270
 30
0.0
 10
-3.083830
 20
0.293531
 30
0.0
 10
-4.562927
 20
0.495404
 30
0.0
 10
-5.990613
 20
0.759903
 30
0.0
 10
-7.359732
 20
1.124196
 30
0.0
 10
-8.663139
 20
1.625479
 30
0.0
 10
-9.893680
 20
2.300978
 30
0.0
 10
-11.044204
 20
3.187861
 30
0.0
 10
-12.441557
 20
4.521446
 30
0.0
 10
-13.077928
 20
5.244866
 30
0.0
 10
-13.637428
 20
6.024674
 30
0.0
 10
-14.383583
 20
7.378014
 30
0.0
 10
-14.995902
 20
8.802728
 30
0.0
 10
-15.509616
 20
10.271723
 30
0.0
 10
-15.959959
 20
11.757934
 30
0.0
 10
-16.649545
 20
14.459337
 30
0.0
 10
-17.188671
 20
17.198159
 30
0.0
 10
-17.610160
 20
19.960353
 30
0.0
 10
-17.946834
 20
22.731747
 30
0.0
 10
-18.244159
 20
26.321134
 30
0.0
 10
-18.393521
 20
29.921753
 30
0.0
 10
-18.526113
 20
37.132531
 30
0.0
 10
-18.510800
 20
40.017971
 30
0.0
 10
-18.425047
 20
42.906544
 30
0.0
 10
-18.402007
 20
45.790968
 30
0.0
 10
-18.574839
 20
48.663962
 30
0.0
 10
-18.831226
 20
51.346907
 30
0.0
 10
-19.124542
 20
52.637114
 30
0.0
 10
-19.367462
 20
53.239405
 30
0.0
 10
-19.695501
 20
53.801704
 30
0.0
 10
-20.161950
 20
54.285207
 30
0.0
 10
-20.740789
 20
54.653028
 30
0.0
 10
-21.996379
 20
55.268836
 30
0.0
 10
-23.382466
 20
55.905022
 30
0.0
 10
-24.816443
 20
56.449598
 30
0.0
 10
-26.229033
 20
57.029141
 30
0.0
 10
-27.550964
 20
57.770059
 30
0.0
 10
-28.915637
 20
58.767799
 30
0.0
 10
-30.207410
 20
59.875126
 30
0.0
 10
-31.356591
 20
61.111457
 30
0.0
 10
-32.293475
 20
62.496294
 30
0.0
 10
-32.669398
 20
63.265547
 30
0.0
 10
-32.974828
 20
64.066691
 30
0.0
 10
-33.407121
 20
65.739591
 30
0.0
 10
-33.656146
 20
67.465070
 30
0.0
 10
-33.787692
 20
69.193229
 30
0.0
 10
-33.827548
 20
71.070318
 30
0.0
 10
-33.722683
 20
72.952542
 30
0.0
 10
-33.445952
 20
74.812048
 30
0.0
 10
-32.970205
 20
76.620980
 30
0.0
 10
-32.448407
 20
77.843651
 30
0.0
 10
-31.786576
 20
78.970762
 30
0.0
 10
-31.007561
 20
80.008267
 30
0.0
 10
-30.134202
 20
80.962319
 30
0.0
 10
-29.189344
 20
81.838958
 30
0.0
 10
-28.195828
 20
82.644251
 30
0.0
 10
-26.154199
 20
84.064986
 30
0.0
 10
-23.177612
 20
85.897963
 30
0.0
 10
-20.109322
 20
87.588615
 30
0.0
 10
-8.169413
 20
89.190777
 30
0.0
 10
-3.849051
 20
89.589428
 30
0.0
 10
-0.000002
 20
89.721337
 30
0.0
 10
3.849048
 20
89.587660
 30
0.0
 10
8.169410
 20
89.189557
 30
0.0
 10
20.109319
 20
87.604702
 30
0.0
 10
23.177610
 20
85.914078
 30
0.0
 10
26.154196
 20
84.081072
 30
0.0
 10
28.339423
 20
82.528229
 30
0.0
 10
29.346093
 20
81.707640
 30
0.0
 10
30.277136
 20
80.840089
 30
0.0
 10
31.118818
 20
79.912396
 30
0.0
 10
31.857386
 20
78.911439
 30
0.0
 10
32.479096
 20
77.824036
 30
0.0
 10
32.970205
 20
76.637066
 30
0.0
 10
33.445950
 20
74.828135
 30
0.0
 10
33.722685
 20
72.968629
 30
0.0
 10
33.827548
 20
71.086376
 30
0.0
 10
33.787692
 20
69.209288
 30
0.0
 10
33.656146
 20
67.481185
 30
0.0
 10
33.407121
 20
65.755678
 30
0.0
 10
32.974830
 20
64.082778
 30
0.0
 10
32.669395
 20
63.281662
 30
0.0
 10
32.293475
 20
62.512408
 30
0.0
 10
31.356588
 20
61.127544
 30
0.0
 10
30.207410
 20
59.891185
 30
0.0
 10
28.915634
 20
58.783858
 30
0.0
 10
27.550963
 20
57.786118
 30
0.0
 10
26.229029
 20
57.045200
 30
0.0
 10
24.816440
 20
56.465713
 30
0.0
 10
23.382465
 20
55.921080
 30
0.0
 10
21.996377
 20
55.284951
 30
0.0
 10
20.740788
 20
54.669086
 30
0.0
 10
20.161949
 20
54.301266
 30
0.0
 10
19.695500
 20
53.817791
 30
0.0
 10
19.367460
 20
53.255491
 30
0.0
 10
19.124541
 20
52.653201
 30
0.0
 10
18.831225
 20
51.362994
 30
0.0
 10
18.574838
 20
48.680076
 30
0.0
 10
18.402006
 20
45.807054
 30
0.0
 10
18.425046
 20
42.922602
 30
0.0
 10
18.510799
 20
40.034058
 30
0.0
 10
18.526112
 20
37.148618
 30
0.0
 10
18.393520
 20
29.937840
 30
0.0
 10
18.244158
 20
26.337192
 30
0.0
 10
17.946833
 20
22.747834
 30
0.0
 10
17.610157
 20
19.976411
 30
0.0
 10
17.188670
 20
17.214274
 30
0.0
 10
16.649544
 20
14.475423
 30
0.0
 10
15.959958
 20
11.774020
 30
0.0
 10
15.509615
 20
10.287838
 30
0.0
 10
14.995901
 20
8.818815
 30
0.0
 10
14.383581
 20
7.394101
 30
0.0
 10
13.637427
 20
6.040789
 30
0.0
 10
13.077927
 20
5.260952
 30
0.0
 10
12.441556
 20
4.537504
 30
0.0
 10
11.044203
 20
3.203919
 30
0.0
 10
9.936870
 20
2.338259
 30
0.0
 10
8.645192
 20
1.642384
 30
0.0
 10
7.222313
 20
1.096820
 30
0.0
 10
5.721381
 20
0.682236
 30
0.0
 10
4.195539
 20
0.379157
 30
0.0
 10
2.697932
 20
0.168168
 30
0.0
 10
-0.000003
 20
-0.055183
 30
0.0
 10
-0.000003
 20
-0.071270
 30
0.0
  0
ENDSEC
  0
SECTION
  2
OBJECTS
  0
DICTIONARY
  5
C
330
0
100
AcDbDictionary
  3
ACAD_GROUP
350
D
  3
ACAD_MLINESTYLE
350
17
  0
DICTIONARY
  5
D
330
C
100
AcDbDictionary
  0
DICTIONARY
  5
1A
330
C
100
AcDbDictionary
  0
DICTIONARY
  5
17
330
C
100
AcDbDictionary
  3
STANDARD
350
18
  0
DICTIONARY
  5
19
330
C
100
AcDbDictionary
  0
ENDSEC
  0
EOF
