  0
SECTION
  2
HEADER
  9
$ACADVER
  1
AC1014
  9
$HANDSEED
  5
FFFF
  9
$MEASUREMENT
 70
     1
  0
ENDSEC
  0
SECTION
  2
TABLES
  0
TABLE
  2
VPORT
  5
8
330
0
100
AcDbSymbolTable
 70
     4
  0
VPORT
  5
2E
330
8
100
AcDbSymbolTableRecord
100
AcDbViewportTableRecord
  2
*ACTIVE
 70
     0
 10
0.0
 20
0.0
 11
1.0
 21
1.0
 12
210.0
 22
148.5
 13
0.0
 23
0.0
 14
10.0
 24
10.0
 15
10.0
 25
10.0
 16
0.0
 26
0.0
 36
1.0
 17
0.0
 27
0.0
 37
0.0
 40
341.0
 41
1.24
 42
50.0
 43
0.0
 44
0.0
 50
0.0
 51
0.0
 71
     0
 72
   100
 73
     1
 74
     3
 75
     0
 76
     0
 77
     0
 78
     0
  0
ENDTAB
  0
TABLE
  2
LTYPE
  5
5
330
0
100
AcDbSymbolTable
 70
     1
  0
LTYPE
  5
14
330
5
100
AcDbSymbolTableRecord
100
AcDbLinetypeTableRecord
  2
BYBLOCK
 70
     0
  3

 72
    65
 73
     0
 40
0.0
  0
LTYPE
  5
15
330
5
100
AcDbSymbolTableRecord
100
AcDbLinetypeTableRecord
  2
BYLAYER
 70
     0
  3

 72
    65
 73
     0
 40
0.0
  0
LTYPE
  5
16
330
5
100
AcDbSymbolTableRecord
100
AcDbLinetypeTableRecord
  2
CONTINUOUS
 70
     0
  3
Solid line
 72
    65
 73
     0
 40
0.0
  0
ENDTAB
  0
TABLE
  2
LAYER
  5
2
100
AcDbSymbolTable
 70
2
  0
LAYER
  5
50
100
AcDbSymbolTableRecord
100
AcDbLayerTableRecord
  2
0
 70
0
  6
CONTINUOUS
  0
LAYER
  5
51
100
AcDbSymbolTableRecord
100
AcDbLayerTableRecord
  2
Layer_1
 70
0
  6
CONTINUOUS
  0
ENDTAB
  0
TABLE
  2
STYLE
  5
3
330
0
100
AcDbSymbolTable
 70
     1
  0
STYLE
  5
11
330
3
100
AcDbSymbolTableRecord
100
AcDbTextStyleTableRecord
  2
STANDARD
 70
     0
 40
0.0
 41
1.0
 50
0.0
 71
     0
 42
2.5
  3
txt
  4

  0
ENDTAB
  0
TABLE
  2
VIEW
  5
6
330
0
100
AcDbSymbolTable
 70
     0
  0
ENDTAB
  0
TABLE
  2
UCS
  5
7
330
0
100
AcDbSymbolTable
 70
     0
  0
ENDTAB
  0
TABLE
  2
APPID
  5
9
330
0
100
AcDbSymbolTable
 70
     2
  0
APPID
  5
12
330
9
100
AcDbSymbolTableRecord
100
AcDbRegAppTableRecord
  2
ACAD
 70
     0
  0
ENDTAB
  0
TABLE
  2
DIMSTYLE
  5
A
330
0
100
AcDbSymbolTable
 70
     1
  0
DIMSTYLE
105
27
330
A
100
AcDbSymbolTableRecord
100
AcDbDimStyleTableRecord
  2
ISO-25
 70
     0
  3

  4

  5

  6

  7

 40
1.0
 41
2.5
 42
0.625
 43
3.75
 44
1.25
 45
0.0
 46
0.0
 47
0.0
 48
0.0
140
2.5
141
2.5
142
0.0
143
0.03937007874016
144
1.0
145
0.0
146
1.0
147
0.625
 71
     0
 72
     0
 73
     0
 74
     0
 75
     0
 76
     0
 77
     1
 78
     8
170
     0
171
     3
172
     1
173
     0
174
     0
175
     0
176
     0
177
     0
178
     0
270
     2
271
     2
272
     2
273
     2
274
     3
340
11
275
     0
280
     0
281
     0
282
     0
283
     0
284
     8
285
     0
286
     0
287
     3
288
     0
  0
ENDTAB
  0
TABLE
  2
BLOCK_RECORD
  5
1
330
0
100
AcDbSymbolTable
 70
     1
  0
BLOCK_RECORD
  5
1F
330
1
100
AcDbSymbolTableRecord
100
AcDbBlockTableRecord
  2
*MODEL_SPACE
  0
BLOCK_RECORD
  5
1B
330
1
100
AcDbSymbolTableRecord
100
AcDbBlockTableRecord
  2
*PAPER_SPACE
  0
ENDTAB
  0
ENDSEC
  0
SECTION
  2
BLOCKS
  0
BLOCK
  5
20
330
1F
100
AcDbEntity
  8
0
100
AcDbBlockBegin
  2
*MODEL_SPACE
 70
     0
 10
0.0
 20
0.0
 30
0.0
  3
*MODEL_SPACE
  1

  0
ENDBLK
  5
21
330
1F
100
AcDbEntity
  8
0
100
AcDbBlockEnd
  0
BLOCK
  5
1C
330
1B
100
AcDbEntity
 67
     1
  8
0
100
AcDbBlockBegin
  2
*PAPER_SPACE
  1

  0
ENDBLK
  5
1D
330
1B
100
AcDbEntity
 67
     1
  8
0
100
AcDbBlockEnd
  0
ENDSEC
  0
SECTION
  2
ENTITIES
  0
LWPOLYLINE
  5
100
100
AcDbEntity
  8
Layer_1
 62
7
100
AcDbPolyline
 90
137
 70
0
 10
-0.000011
 20
-0.026556
 30
0.0
 10
5.023731
 20
0.567691
 30
0.0
 10
7.433268
 20
0.896593
 30
0.0
 10
9.759053
 20
1.327462
 30
0.0
 10
11.989432
 20
1.920919
 30
0.0
 10
14.112759
 20
2.737557
 30
0.0
 10
16.117384
 20
3.837941
 30
0.0
 10
17.991655
 20
5.282750
 30
0.0
 10
20.268026
 20
7.455212
 30
0.0
 10
21.304710
 20
8.633744
 30
0.0
 10
22.216169
 20
9.904139
 30
0.0
 10
23.431698
 20
12.108774
 30
0.0
 10
24.429204
 20
14.429713
 30
0.0
 10
25.266077
 20
16.822831
 30
0.0
 10
25.999711
 20
19.243930
 30
0.0
 10
27.123088
 20
23.644675
 30
0.0
 10
28.001355
 20
28.106411
 30
0.0
 10
28.687985
 20
32.606162
 30
0.0
 10
29.236447
 20
37.120958
 30
0.0
 10
29.720808
 20
42.968233
 30
0.0
 10
29.964126
 20
48.833914
 30
0.0
 10
30.180128
 20
60.580681
 30
0.0
 10
30.155179
 20
65.281205
 30
0.0
 10
30.015482
 20
69.986862
 30
0.0
 10
29.977958
 20
74.685780
 30
0.0
 10
30.259514
 20
79.366094
 30
0.0
 10
30.677180
 20
83.736729
 30
0.0
 10
31.155011
 20
85.838553
 30
0.0
 10
31.550743
 20
86.819696
 30
0.0
 10
32.085139
 20
87.735733
 30
0.0
 10
32.845011
 20
88.523359
 30
0.0
 10
33.787975
 20
89.122573
 30
0.0
 10
35.833403
 20
90.125819
 30
0.0
 10
38.091423
 20
91.162139
 30
0.0
 10
40.427453
 20
92.049330
 30
0.0
 10
42.728645
 20
92.993420
 30
0.0
 10
44.882153
 20
94.200400
 30
0.0
 10
47.105285
 20
95.825774
 30
0.0
 10
49.209664
 20
97.629654
 30
0.0
 10
51.081745
 20
99.643761
 30
0.0
 10
52.607989
 20
101.899761
 30
0.0
 10
53.220386
 20
103.152912
 30
0.0
 10
53.717952
 20
104.457992
 30
0.0
 10
54.422184
 20
107.183271
 30
0.0
 10
54.827859
 20
109.994207
 30
0.0
 10
55.042153
 20
112.809431
 30
0.0
 10
55.107084
 20
115.867308
 30
0.0
 10
54.936252
 20
118.933565
 30
0.0
 10
54.485436
 20
121.962829
 30
0.0
 10
53.710417
 20
124.909708
 30
0.0
 10
52.860372
 20
126.901517
 30
0.0
 10
51.782215
 20
128.737598
 30
0.0
 10
50.513152
 20
130.427799
 30
0.0
 10
49.090397
 20
131.981997
 30
0.0
 10
47.551168
 20
133.410101
 30
0.0
 10
45.932671
 20
134.721951
 30
0.0
 10
42.606736
 20
137.036444
 30
0.0
 10
37.757701
 20
140.022468
 30
0.0
 10
32.759275
 20
142.776616
 30
0.0
 10
27.595759
 20
145.169832
 30
0.0
 10
24.947189
 20
146.190717
 30
0.0
 10
22.251458
 20
147.072969
 30
0.0
 10
19.801944
 20
147.723774
 30
0.0
 10
17.319859
 20
148.243147
 30
0.0
 10
12.284007
 20
148.951218
 30
0.0
 10
7.195978
 20
149.324315
 30
0.0
 10
2.107847
 20
149.489497
 30
0.0
 10
0.000000
 20
149.516026
 30
0.0
 10
0.000000
 20
149.542555
 30
0.0
 10
-2.107847
 20
149.516026
 30
0.0
 10
-7.195978
 20
149.350841
 30
0.0
 10
-12.284007
 20
148.977746
 30
0.0
 10
-17.319859
 20
148.269676
 30
0.0
 10
-19.801944
 20
147.750306
 30
0.0
 10
-22.251458
 20
147.099498
 30
0.0
 10
-24.947189
 20
146.217243
 30
0.0
 10
-27.595759
 20
145.196361
 30
0.0
 10
-32.759275
 20
142.803173
 30
0.0
 10
-37.757701
 20
140.049026
 30
0.0
 10
-42.606736
 20
137.062973
 30
0.0
 10
-46.166600
 20
134.533260
 30
0.0
 10
-47.806523
 20
133.196487
 30
0.0
 10
-49.323252
 20
131.783171
 30
0.0
 10
-50.694398
 20
130.271931
 30
0.0
 10
-51.897568
 20
128.641304
 30
0.0
 10
-52.910370
 20
126.869880
 30
0.0
 10
-53.710417
 20
124.936234
 30
0.0
 10
-54.485436
 20
121.989357
 30
0.0
 10
-54.936252
 20
118.960094
 30
0.0
 10
-55.107084
 20
115.893834
 30
0.0
 10
-55.042153
 20
112.835959
 30
0.0
 10
-54.827856
 20
110.020736
 30
0.0
 10
-54.422181
 20
107.209800
 30
0.0
 10
-53.717949
 20
104.484521
 30
0.0
 10
-53.220383
 20
103.179441
 30
0.0
 10
-52.607986
 20
101.926293
 30
0.0
 10
-51.081742
 20
99.670290
 30
0.0
 10
-49.209661
 20
97.656183
 30
0.0
 10
-47.105282
 20
95.852303
 30
0.0
 10
-44.882153
 20
94.226929
 30
0.0
 10
-42.728645
 20
93.019949
 30
0.0
 10
-40.427453
 20
92.075859
 30
0.0
 10
-38.091423
 20
91.188668
 30
0.0
 10
-35.833403
 20
90.152348
 30
0.0
 10
-33.787975
 20
89.149102
 30
0.0
 10
-32.845011
 20
88.549891
 30
0.0
 10
-32.085139
 20
87.762262
 30
0.0
 10
-31.550743
 20
86.846225
 30
0.0
 10
-31.155011
 20
85.865082
 30
0.0
 10
-30.677180
 20
83.763261
 30
0.0
 10
-30.259514
 20
79.392623
 30
0.0
 10
-29.977958
 20
74.712306
 30
0.0
 10
-30.015482
 20
70.013391
 30
0.0
 10
-30.155179
 20
65.307733
 30
0.0
 10
-30.180128
 20
60.607209
 30
0.0
 10
-29.964126
 20
48.860412
 30
0.0
 10
-29.720808
 20
42.994762
 30
0.0
 10
-29.236447
 20
37.147484
 30
0.0
 10
-28.687985
 20
32.632691
 30
0.0
 10
-28.001355
 20
28.132943
 30
0.0
 10
-27.123088
 20
23.671232
 30
0.0
 10
-25.999711
 20
19.270487
 30
0.0
 10
-25.266077
 20
16.849359
 30
0.0
 10
-24.429204
 20
14.456270
 30
0.0
 10
-23.431700
 20
12.135331
 30
0.0
 10
-22.216169
 20
9.930668
 30
0.0
 10
-21.304710
 20
8.660272
 30
0.0
 10
-20.268026
 20
7.481769
 30
0.0
 10
-17.991655
 20
5.309279
 30
0.0
 10
-16.187742
 20
3.899042
 30
0.0
 10
-14.083521
 20
2.765412
 30
0.0
 10
-11.765571
 20
1.876694
 30
0.0
 10
-9.320462
 20
1.201280
 30
0.0
 10
-6.834776
 20
0.707561
 30
0.0
 10
-4.395083
 20
0.363842
 30
0.0
 10
0.000011
 20
-0.000027
 30
0.0
 10
0.000011
 20
-0.026556
 30
0.0
  0
ENDSEC
  0
SECTION
  2
OBJECTS
  0
DICTIONARY
  5
C
330
0
100
AcDbDictionary
  3
ACAD_GROUP
350
D
  3
ACAD_MLINESTYLE
350
17
  0
DICTIONARY
  5
D
330
C
100
AcDbDictionary
  0
DICTIONARY
  5
1A
330
C
100
AcDbDictionary
  0
DICTIONARY
  5
17
330
C
100
AcDbDictionary
  3
STANDARD
350
18
  0
DICTIONARY
  5
19
330
C
100
AcDbDictionary
  0
ENDSEC
  0
EOF
