  0
SECTION
  2
HEADER
  9
$ACADVER
  1
AC1014
  9
$HANDSEED
  5
FFFF
  9
$MEASUREMENT
 70
     1
  0
ENDSEC
  0
SECTION
  2
TABLES
  0
TABLE
  2
VPORT
  5
8
330
0
100
AcDbSymbolTable
 70
     4
  0
VPORT
  5
2E
330
8
100
AcDbSymbolTableRecord
100
AcDbViewportTableRecord
  2
*ACTIVE
 70
     0
 10
0.0
 20
0.0
 11
1.0
 21
1.0
 12
210.0
 22
148.5
 13
0.0
 23
0.0
 14
10.0
 24
10.0
 15
10.0
 25
10.0
 16
0.0
 26
0.0
 36
1.0
 17
0.0
 27
0.0
 37
0.0
 40
341.0
 41
1.24
 42
50.0
 43
0.0
 44
0.0
 50
0.0
 51
0.0
 71
     0
 72
   100
 73
     1
 74
     3
 75
     0
 76
     0
 77
     0
 78
     0
  0
ENDTAB
  0
TABLE
  2
LTYPE
  5
5
330
0
100
AcDbSymbolTable
 70
     1
  0
LTYPE
  5
14
330
5
100
AcDbSymbolTableRecord
100
AcDbLinetypeTableRecord
  2
BYBLOCK
 70
     0
  3

 72
    65
 73
     0
 40
0.0
  0
LTYPE
  5
15
330
5
100
AcDbSymbolTableRecord
100
AcDbLinetypeTableRecord
  2
BYLAYER
 70
     0
  3

 72
    65
 73
     0
 40
0.0
  0
LTYPE
  5
16
330
5
100
AcDbSymbolTableRecord
100
AcDbLinetypeTableRecord
  2
CONTINUOUS
 70
     0
  3
Solid line
 72
    65
 73
     0
 40
0.0
  0
ENDTAB
  0
TABLE
  2
LAYER
  5
2
100
AcDbSymbolTable
 70
2
  0
LAYER
  5
50
100
AcDbSymbolTableRecord
100
AcDbLayerTableRecord
  2
0
 70
0
  6
CONTINUOUS
  0
LAYER
  5
51
100
AcDbSymbolTableRecord
100
AcDbLayerTableRecord
  2
Layer_1
 70
0
  6
CONTINUOUS
  0
ENDTAB
  0
TABLE
  2
STYLE
  5
3
330
0
100
AcDbSymbolTable
 70
     1
  0
STYLE
  5
11
330
3
100
AcDbSymbolTableRecord
100
AcDbTextStyleTableRecord
  2
STANDARD
 70
     0
 40
0.0
 41
1.0
 50
0.0
 71
     0
 42
2.5
  3
txt
  4

  0
ENDTAB
  0
TABLE
  2
VIEW
  5
6
330
0
100
AcDbSymbolTable
 70
     0
  0
ENDTAB
  0
TABLE
  2
UCS
  5
7
330
0
100
AcDbSymbolTable
 70
     0
  0
ENDTAB
  0
TABLE
  2
APPID
  5
9
330
0
100
AcDbSymbolTable
 70
     2
  0
APPID
  5
12
330
9
100
AcDbSymbolTableRecord
100
AcDbRegAppTableRecord
  2
ACAD
 70
     0
  0
ENDTAB
  0
TABLE
  2
DIMSTYLE
  5
A
330
0
100
AcDbSymbolTable
 70
     1
  0
DIMSTYLE
105
27
330
A
100
AcDbSymbolTableRecord
100
AcDbDimStyleTableRecord
  2
ISO-25
 70
     0
  3

  4

  5

  6

  7

 40
1.0
 41
2.5
 42
0.625
 43
3.75
 44
1.25
 45
0.0
 46
0.0
 47
0.0
 48
0.0
140
2.5
141
2.5
142
0.0
143
0.03937007874016
144
1.0
145
0.0
146
1.0
147
0.625
 71
     0
 72
     0
 73
     0
 74
     0
 75
     0
 76
     0
 77
     1
 78
     8
170
     0
171
     3
172
     1
173
     0
174
     0
175
     0
176
     0
177
     0
178
     0
270
     2
271
     2
272
     2
273
     2
274
     3
340
11
275
     0
280
     0
281
     0
282
     0
283
     0
284
     8
285
     0
286
     0
287
     3
288
     0
  0
ENDTAB
  0
TABLE
  2
BLOCK_RECORD
  5
1
330
0
100
AcDbSymbolTable
 70
     1
  0
BLOCK_RECORD
  5
1F
330
1
100
AcDbSymbolTableRecord
100
AcDbBlockTableRecord
  2
*MODEL_SPACE
  0
BLOCK_RECORD
  5
1B
330
1
100
AcDbSymbolTableRecord
100
AcDbBlockTableRecord
  2
*PAPER_SPACE
  0
ENDTAB
  0
ENDSEC
  0
SECTION
  2
BLOCKS
  0
BLOCK
  5
20
330
1F
100
AcDbEntity
  8
0
100
AcDbBlockBegin
  2
*MODEL_SPACE
 70
     0
 10
0.0
 20
0.0
 30
0.0
  3
*MODEL_SPACE
  1

  0
ENDBLK
  5
21
330
1F
100
AcDbEntity
  8
0
100
AcDbBlockEnd
  0
BLOCK
  5
1C
330
1B
100
AcDbEntity
 67
     1
  8
0
100
AcDbBlockBegin
  2
*PAPER_SPACE
  1

  0
ENDBLK
  5
1D
330
1B
100
AcDbEntity
 67
     1
  8
0
100
AcDbBlockEnd
  0
ENDSEC
  0
SECTION
  2
ENTITIES
  0
LWPOLYLINE
  5
100
100
AcDbEntity
  8
Layer_1
 62
7
100
AcDbPolyline
 90
31
 70
0
 10
-15.256722
 20
65.264178
 30
0.0
 10
-8.792069
 20
65.264178
 30
0.0
 10
-9.708239
 20
64.420915
 30
0.0
 10
-10.344292
 20
63.491470
 30
0.0
 10
-10.722235
 20
62.461762
 30
0.0
 10
-10.847000
 20
61.286609
 30
0.0
 10
-10.736674
 20
60.220418
 30
0.0
 10
-10.405079
 20
59.252839
 30
0.0
 10
-9.851269
 20
58.384921
 30
0.0
 10
-9.074292
 20
57.617720
 30
0.0
 10
-8.126488
 20
56.991449
 30
0.0
 10
-7.050349
 20
56.545098
 30
0.0
 10
-5.846268
 20
56.277867
 30
0.0
 10
-4.514639
 20
56.188970
 30
0.0
 10
-3.182635
 20
56.277867
 30
0.0
 10
-1.977204
 20
56.545098
 30
0.0
 10
-0.898370
 20
56.991449
 30
0.0
 10
0.053833
 20
57.617720
 30
0.0
 10
0.826408
 20
58.384921
 30
0.0
 10
1.377526
 20
59.252839
 30
0.0
 10
1.707771
 20
60.220418
 30
0.0
 10
1.817722
 20
61.286609
 30
0.0
 10
1.694682
 20
62.468863
 30
0.0
 10
1.323833
 20
63.500289
 30
0.0
 10
0.686073
 20
64.422628
 30
0.0
 10
-0.237208
 20
65.264178
 30
0.0
 10
1.509042
 20
65.264178
 30
0.0
 10
1.509042
 20
69.135914
 30
0.0
 10
-15.256722
 20
69.135914
 30
0.0
 10
-15.256722
 20
65.264178
 30
0.0
 10
-15.256722
 20
65.264178
 30
0.0
  0
LWPOLYLINE
  5
101
100
AcDbEntity
  8
Layer_1
 62
7
100
AcDbPolyline
 90
35
 70
0
 10
-14.868667
 20
107.130087
 30
0.0
 10
-14.621722
 20
104.448978
 30
0.0
 10
-13.916167
 20
101.679664
 30
0.0
 10
-10.388389
 20
101.679664
 30
0.0
 10
-11.103687
 20
102.954778
 30
0.0
 10
-11.614292
 20
104.149117
 30
0.0
 10
-11.930998
 20
105.253224
 30
0.0
 10
-12.037625
 20
106.265781
 30
0.0
 10
-11.861637
 20
107.402205
 30
0.0
 10
-11.340889
 20
108.285420
 30
0.0
 10
-10.542914
 20
108.855906
 30
0.0
 10
-9.524083
 20
109.043892
 30
0.0
 10
-8.805052
 20
108.952960
 30
0.0
 10
-8.112972
 20
108.673475
 30
0.0
 10
-7.424310
 20
108.193754
 30
0.0
 10
-6.719500
 20
107.509309
 30
0.0
 10
-1.542486
 20
101.635564
 30
0.0
 10
1.509042
 20
101.635564
 30
0.0
 10
1.509042
 20
113.321339
 30
0.0
 10
-1.542486
 20
113.321339
 30
0.0
 10
-1.542486
 20
106.248142
 30
0.0
 10
-4.558736
 20
109.687728
 30
0.0
 10
-6.269612
 20
111.486469
 30
0.0
 10
-7.592625
 20
112.536392
 30
0.0
 10
-8.779832
 20
113.045634
 30
0.0
 10
-10.053250
 20
113.215503
 30
0.0
 10
-11.127413
 20
113.115204
 30
0.0
 10
-12.076453
 20
112.814268
 30
0.0
 10
-12.900243
 20
112.312677
 30
0.0
 10
-13.598667
 20
111.610367
 30
0.0
 10
-14.154667
 20
110.732543
 30
0.0
 10
-14.551497
 20
109.693429
 30
0.0
 10
-14.789410
 20
108.492740
 30
0.0
 10
-14.868667
 20
107.130087
 30
0.0
 10
-14.868667
 20
107.130087
 30
0.0
  0
LWPOLYLINE
  5
102
100
AcDbEntity
  8
Layer_1
 62
7
100
AcDbPolyline
 90
40
 70
0
 10
-10.847000
 20
47.881047
 30
0.0
 10
-10.740994
 20
46.402372
 30
0.0
 10
-10.423218
 20
45.090829
 30
0.0
 10
-9.893998
 20
43.946277
 30
0.0
 10
-9.153667
 20
42.968631
 30
0.0
 10
-8.229823
 20
42.190262
 30
0.0
 10
-7.149296
 20
41.633409
 30
0.0
 10
-5.911196
 20
41.298807
 30
0.0
 10
-4.514639
 20
41.187103
 30
0.0
 10
-3.095391
 20
41.301262
 30
0.0
 10
-1.843479
 20
41.642977
 30
0.0
 10
-0.758569
 20
42.210949
 30
0.0
 10
0.159667
 20
43.003909
 30
0.0
 10
0.885401
 20
44.005459
 30
0.0
 10
1.403508
 20
45.189071
 30
0.0
 10
1.714206
 20
46.554518
 30
0.0
 10
1.817722
 20
48.101548
 30
0.0
 10
1.752769
 20
49.468547
 30
0.0
 10
1.553139
 20
50.835575
 30
0.0
 10
0.777028
 20
53.569595
 30
0.0
 10
-2.195125
 20
53.569595
 30
0.0
 10
-1.556735
 20
52.239321
 30
0.0
 10
-1.101514
 20
50.941409
 30
0.0
 10
-0.831825
 20
49.684391
 30
0.0
 10
-0.739917
 20
48.454325
 30
0.0
 10
-0.909766
 20
47.114334
 30
0.0
 10
-1.419014
 20
46.108353
 30
0.0
 10
-2.267961
 20
45.439374
 30
0.0
 10
-3.456305
 20
45.120575
 30
0.0
 10
-3.456305
 20
54.142859
 30
0.0
 10
-4.558736
 20
54.142859
 30
0.0
 10
-5.919383
 20
54.036114
 30
0.0
 10
-7.135589
 20
53.715639
 30
0.0
 10
-8.207692
 20
53.181031
 30
0.0
 10
-9.136028
 20
52.431881
 30
0.0
 10
-9.885175
 20
51.508704
 30
0.0
 10
-10.419786
 20
50.441988
 30
0.0
 10
-10.740258
 20
49.232525
 30
0.0
 10
-10.847000
 20
47.881047
 30
0.0
 10
-10.847000
 20
47.881047
 30
0.0
  0
LWPOLYLINE
  5
103
100
AcDbEntity
  8
Layer_1
 62
7
100
AcDbPolyline
 90
62
 70
0
 10
-10.847000
 20
93.230634
 30
0.0
 10
-10.789167
 20
91.960467
 30
0.0
 10
-10.615620
 20
90.865222
 30
0.0
 10
-10.326249
 20
89.945062
 30
0.0
 10
-9.920958
 20
89.200150
 30
0.0
 10
-9.396417
 20
88.625128
 30
0.0
 10
-8.748830
 20
88.214484
 30
0.0
 10
-7.977342
 20
87.968149
 30
0.0
 10
-7.081097
 20
87.886053
 30
0.0
 10
-6.248124
 20
87.950315
 30
0.0
 10
-5.527503
 20
88.143406
 30
0.0
 10
-4.920017
 20
88.465791
 30
0.0
 10
-4.426444
 20
88.917928
 30
0.0
 10
-4.025257
 20
89.532416
 30
0.0
 10
-3.693756
 20
90.340726
 30
0.0
 10
-3.235819
 20
92.533900
 30
0.0
 10
-3.147625
 20
93.212995
 30
0.0
 10
-2.978814
 20
94.190141
 30
0.0
 10
-2.750750
 20
94.774039
 30
0.0
 10
-2.434441
 20
95.072131
 30
0.0
 10
-1.983458
 20
95.170914
 30
0.0
 10
-1.445015
 20
95.027037
 30
0.0
 10
-1.057417
 20
94.597650
 30
0.0
 10
-0.820550
 20
93.886634
 30
0.0
 10
-0.739917
 20
92.895495
 30
0.0
 10
-0.810991
 20
91.652690
 30
0.0
 10
-1.022139
 20
90.426053
 30
0.0
 10
-1.371028
 20
89.235188
 30
0.0
 10
-1.859986
 20
88.071259
 30
0.0
 10
1.068069
 20
88.071259
 30
0.0
 10
1.623694
 20
90.690634
 30
0.0
 10
1.817722
 20
93.168900
 30
0.0
 10
1.758425
 20
94.492331
 30
0.0
 10
1.579484
 20
95.640134
 30
0.0
 10
1.279335
 20
96.612858
 30
0.0
 10
0.856403
 20
97.411053
 30
0.0
 10
0.311110
 20
98.032907
 30
0.0
 10
-0.354663
 20
98.476561
 30
0.0
 10
-1.140308
 20
98.742445
 30
0.0
 10
-2.045194
 20
98.830984
 30
0.0
 10
-2.905619
 20
98.767083
 30
0.0
 10
-3.644090
 20
98.575338
 30
0.0
 10
-4.260007
 20
98.255651
 30
0.0
 10
-4.752764
 20
97.807928
 30
0.0
 10
-5.152754
 20
97.174946
 30
0.0
 10
-5.491331
 20
96.299572
 30
0.0
 10
-5.987486
 20
93.821539
 30
0.0
 10
-6.084500
 20
93.142439
 30
0.0
 10
-6.237380
 20
92.255914
 30
0.0
 10
-6.454917
 20
91.687234
 30
0.0
 10
-6.753818
 20
91.389128
 30
0.0
 10
-7.160472
 20
91.290359
 30
0.0
 10
-7.659218
 20
91.422952
 30
0.0
 10
-8.007139
 20
91.819525
 30
0.0
 10
-8.213867
 20
92.499661
 30
0.0
 10
-8.280542
 20
93.459939
 30
0.0
 10
-8.024778
 20
95.629525
 30
0.0
 10
-7.248667
 20
98.028414
 30
0.0
 10
-10.176722
 20
98.028414
 30
0.0
 10
-10.688250
 20
95.470775
 30
0.0
 10
-10.847000
 20
93.230634
 30
0.0
 10
-10.847000
 20
93.230634
 30
0.0
  0
LWPOLYLINE
  5
104
100
AcDbEntity
  8
Layer_1
 62
7
100
AcDbPolyline
 90
33
 70
0
 10
-10.555958
 20
72.734245
 30
0.0
 10
-3.191722
 20
72.734245
 30
0.0
 10
-2.041139
 20
72.803104
 30
0.0
 10
-1.035502
 20
73.008997
 30
0.0
 10
-0.175320
 20
73.350920
 30
0.0
 10
0.538903
 20
73.827859
 30
0.0
 10
1.099323
 20
74.438458
 30
0.0
 10
1.498848
 20
75.171956
 30
0.0
 10
1.738107
 20
76.029356
 30
0.0
 10
1.817722
 20
77.011678
 30
0.0
 10
1.694682
 20
78.138823
 30
0.0
 10
1.323833
 20
79.163620
 30
0.0
 10
0.680686
 20
80.116591
 30
0.0
 10
-0.237208
 20
81.015706
 30
0.0
 10
1.509042
 20
81.015706
 30
0.0
 10
1.509042
 20
84.869803
 30
0.0
 10
-10.555958
 20
84.869803
 30
0.0
 10
-10.555958
 20
81.015706
 30
0.0
 10
-4.602833
 20
81.015706
 30
0.0
 10
-3.134722
 20
80.839718
 30
0.0
 10
-2.027555
 20
80.318970
 30
0.0
 10
-1.622256
 20
79.941879
 30
0.0
 10
-1.332885
 20
79.500164
 30
0.0
 10
-1.101514
 20
78.422789
 30
0.0
 10
-1.304361
 20
77.540845
 30
0.0
 10
-1.886444
 20
76.932303
 30
0.0
 10
-2.812486
 20
76.667720
 30
0.0
 10
-4.911514
 20
76.597164
 30
0.0
 10
-6.887069
 20
76.605970
 30
0.0
 10
-9.347694
 20
76.614775
 30
0.0
 10
-10.555958
 20
76.614775
 30
0.0
 10
-10.555958
 20
72.734216
 30
0.0
 10
-10.555958
 20
72.734245
 30
0.0
  0
LWPOLYLINE
  5
105
100
AcDbEntity
  8
Layer_1
 62
7
100
AcDbPolyline
 90
11
 70
0
 10
-8.280542
 20
47.863409
 30
0.0
 10
-8.110683
 20
48.796520
 30
0.0
 10
-7.601444
 20
49.530298
 30
0.0
 10
-6.827238
 20
50.013801
 30
0.0
 10
-5.837555
 20
50.174103
 30
0.0
 10
-5.837555
 20
45.164659
 30
0.0
 10
-6.881608
 20
45.469233
 30
0.0
 10
-7.645542
 20
46.037798
 30
0.0
 10
-8.121958
 20
46.845546
 30
0.0
 10
-8.280542
 20
47.863409
 30
0.0
 10
-8.280542
 20
47.863409
 30
0.0
  0
LWPOLYLINE
  5
106
100
AcDbEntity
  8
Layer_1
 62
7
100
AcDbPolyline
 90
22
 70
0
 10
-8.051236
 20
62.715359
 30
0.0
 10
-7.823288
 20
63.807178
 30
0.0
 10
-7.539310
 20
64.242161
 30
0.0
 10
-7.142833
 20
64.602720
 30
0.0
 10
-6.033443
 20
65.097749
 30
0.0
 10
-4.514639
 20
65.264178
 30
0.0
 10
-2.995826
 20
65.097749
 30
0.0
 10
-1.886444
 20
64.602720
 30
0.0
 10
-1.489962
 20
64.242161
 30
0.0
 10
-1.205981
 20
63.807178
 30
0.0
 10
-0.978042
 20
62.715359
 30
0.0
 10
-1.205981
 20
61.633324
 30
0.0
 10
-1.489962
 20
61.200034
 30
0.0
 10
-1.886444
 20
60.836814
 30
0.0
 10
-2.995826
 20
60.348880
 30
0.0
 10
-4.514639
 20
60.184178
 30
0.0
 10
-6.033443
 20
60.348880
 30
0.0
 10
-7.142833
 20
60.836814
 30
0.0
 10
-7.539310
 20
61.200034
 30
0.0
 10
-7.823288
 20
61.633324
 30
0.0
 10
-8.051236
 20
62.715359
 30
0.0
 10
-8.051236
 20
62.715359
 30
0.0
  0
LWPOLYLINE
  5
107
100
AcDbEntity
  8
Layer_1
 62
7
100
AcDbPolyline
 90
19
 70
0
 10
5.310222
 20
74.295289
 30
0.0
 10
7.779667
 20
74.295289
 30
0.0
 10
7.188764
 20
73.616189
 30
0.0
 10
6.994736
 20
72.778345
 30
0.0
 10
7.164484
 20
72.001043
 30
0.0
 10
7.673833
 20
71.376053
 30
0.0
 10
8.444786
 20
70.965778
 30
0.0
 10
9.411264
 20
70.829245
 30
0.0
 10
10.381126
 20
70.965778
 30
0.0
 10
11.157514
 20
71.376053
 30
0.0
 10
11.665839
 20
72.001043
 30
0.0
 10
11.836611
 20
72.778345
 30
0.0
 10
11.642583
 20
73.625009
 30
0.0
 10
11.051681
 20
74.295289
 30
0.0
 10
11.713139
 20
74.295289
 30
0.0
 10
11.713139
 20
75.776956
 30
0.0
 10
5.310222
 20
75.776956
 30
0.0
 10
5.310222
 20
74.295289
 30
0.0
 10
5.310222
 20
74.295289
 30
0.0
  0
LWPOLYLINE
  5
108
100
AcDbEntity
  8
Layer_1
 62
7
100
AcDbPolyline
 90
26
 70
0
 10
5.460153
 20
90.293759
 30
0.0
 10
5.548347
 20
89.261884
 30
0.0
 10
5.821750
 20
88.203553
 30
0.0
 10
7.171125
 20
88.203553
 30
0.0
 10
6.703695
 20
89.147234
 30
0.0
 10
6.536125
 20
89.958620
 30
0.0
 10
6.602557
 20
90.395043
 30
0.0
 10
6.800708
 20
90.734734
 30
0.0
 10
7.106886
 20
90.953318
 30
0.0
 10
7.497445
 20
91.025775
 30
0.0
 10
8.035431
 20
90.875845
 30
0.0
 10
8.573417
 20
90.434870
 30
0.0
 10
10.548972
 20
88.194734
 30
0.0
 10
11.713139
 20
88.194734
 30
0.0
 10
11.713139
 20
92.657370
 30
0.0
 10
10.548972
 20
92.657370
 30
0.0
 10
10.548972
 20
89.949803
 30
0.0
 10
9.393625
 20
91.263900
 30
0.0
 10
8.238278
 20
92.357509
 30
0.0
 10
7.782907
 20
92.550224
 30
0.0
 10
7.294597
 20
92.613275
 30
0.0
 10
6.524207
 20
92.462340
 30
0.0
 10
5.945222
 20
92.004734
 30
0.0
 10
5.581257
 20
91.272737
 30
0.0
 10
5.460153
 20
90.293759
 30
0.0
 10
5.460153
 20
90.293759
 30
0.0
  0
LWPOLYLINE
  5
109
100
AcDbEntity
  8
Layer_1
 62
7
100
AcDbPolyline
 90
25
 70
0
 10
6.994736
 20
67.654245
 30
0.0
 10
7.155078
 20
66.587363
 30
0.0
 10
7.638556
 20
65.775706
 30
0.0
 10
8.404504
 20
65.266351
 30
0.0
 10
9.411264
 20
65.096609
 30
0.0
 10
10.434049
 20
65.272083
 30
0.0
 10
11.201611
 20
65.793345
 30
0.0
 10
11.677596
 20
66.624551
 30
0.0
 10
11.836611
 20
67.733620
 30
0.0
 10
11.730778
 20
68.783134
 30
0.0
 10
11.430917
 20
69.823831
 30
0.0
 10
10.302028
 20
69.823831
 30
0.0
 10
10.716542
 20
68.827234
 30
0.0
 10
10.857653
 20
67.874734
 30
0.0
 10
10.790196
 20
67.361137
 30
0.0
 10
10.593070
 20
66.975150
 30
0.0
 10
10.269849
 20
66.723047
 30
0.0
 10
9.816958
 20
66.604734
 30
0.0
 10
9.816958
 20
70.044314
 30
0.0
 10
9.393625
 20
70.044314
 30
0.0
 10
8.410388
 20
69.881622
 30
0.0
 10
7.647375
 20
69.391678
 30
0.0
 10
7.157429
 20
68.632046
 30
0.0
 10
6.994736
 20
67.654245
 30
0.0
 10
6.994736
 20
67.654245
 30
0.0
  0
LWPOLYLINE
  5
10a
100
AcDbEntity
  8
Layer_1
 62
7
100
AcDbPolyline
 90
38
 70
0
 10
6.994736
 20
84.984456
 30
0.0
 10
7.082626
 20
84.078966
 30
0.0
 10
7.347514
 20
83.441053
 30
0.0
 10
7.795234
 20
83.064148
 30
0.0
 10
8.432306
 20
82.938345
 30
0.0
 10
9.025873
 20
83.037986
 30
0.0
 10
9.446542
 20
83.335220
 30
0.0
 10
9.728335
 20
83.875969
 30
0.0
 10
9.905153
 20
84.711053
 30
0.0
 10
9.940431
 20
84.975634
 30
0.0
 10
10.090361
 20
85.566539
 30
0.0
 10
10.381403
 20
85.725289
 30
0.0
 10
10.734181
 20
85.504803
 30
0.0
 10
10.857653
 20
84.852164
 30
0.0
 10
10.743000
 20
83.908484
 30
0.0
 10
10.425500
 20
83.008900
 30
0.0
 10
11.545570
 20
83.008900
 30
0.0
 10
11.757236
 20
84.005495
 30
0.0
 10
11.836611
 20
84.957995
 30
0.0
 10
11.744023
 20
85.903171
 30
0.0
 10
11.466195
 20
86.580775
 30
0.0
 10
11.002162
 20
86.985606
 30
0.0
 10
10.354945
 20
87.118759
 30
0.0
 10
9.745359
 20
87.022498
 30
0.0
 10
9.323070
 20
86.730706
 30
0.0
 10
9.038638
 20
86.153062
 30
0.0
 10
8.846820
 20
85.204939
 30
0.0
 10
8.811542
 20
84.949178
 30
0.0
 10
8.670431
 20
84.393553
 30
0.0
 10
8.397028
 20
84.243620
 30
0.0
 10
8.079528
 20
84.437650
 30
0.0
 10
7.973695
 20
85.063831
 30
0.0
 10
8.070708
 20
85.901678
 30
0.0
 10
8.370570
 20
86.810081
 30
0.0
 10
7.250500
 20
86.810081
 30
0.0
 10
7.056472
 20
85.839939
 30
0.0
 10
6.994736
 20
84.984456
 30
0.0
 10
6.994736
 20
84.984456
 30
0.0
  0
LWPOLYLINE
  5
10b
100
AcDbEntity
  8
Layer_1
 62
7
100
AcDbPolyline
 90
28
 70
0
 10
6.994736
 20
99.615914
 30
0.0
 10
7.156108
 20
98.505522
 30
0.0
 10
7.638556
 20
97.666814
 30
0.0
 10
8.399359
 20
97.138057
 30
0.0
 10
9.411264
 20
96.961259
 30
0.0
 10
10.426553
 20
97.138057
 30
0.0
 10
11.192792
 20
97.666814
 30
0.0
 10
11.674215
 20
98.505522
 30
0.0
 10
11.836611
 20
99.615914
 30
0.0
 10
11.766056
 20
100.330289
 30
0.0
 10
11.580847
 20
101.027025
 30
0.0
 10
10.372583
 20
101.027025
 30
0.0
 10
10.681264
 20
100.453759
 30
0.0
 10
10.778278
 20
99.801120
 30
0.0
 10
10.691424
 20
99.252536
 30
0.0
 10
10.425500
 20
98.839803
 30
0.0
 10
9.989393
 20
98.582405
 30
0.0
 10
9.411264
 20
98.495845
 30
0.0
 10
8.836518
 20
98.582405
 30
0.0
 10
8.405847
 20
98.839803
 30
0.0
 10
8.134488
 20
99.252536
 30
0.0
 10
8.044250
 20
99.801120
 30
0.0
 10
8.150083
 20
100.427303
 30
0.0
 10
8.449945
 20
101.027025
 30
0.0
 10
7.250500
 20
101.027025
 30
0.0
 10
7.056472
 20
100.330289
 30
0.0
 10
6.994736
 20
99.615914
 30
0.0
 10
6.994736
 20
99.615914
 30
0.0
  0
LWPOLYLINE
  5
10c
100
AcDbEntity
  8
Layer_1
 62
7
100
AcDbPolyline
 90
18
 70
0
 10
6.994736
 20
104.501892
 30
0.0
 10
7.156108
 20
103.437350
 30
0.0
 10
7.638556
 20
102.632170
 30
0.0
 10
8.401419
 20
102.129278
 30
0.0
 10
9.411264
 20
101.961884
 30
0.0
 10
10.425523
 20
102.129278
 30
0.0
 10
11.192792
 20
102.632170
 30
0.0
 10
11.675245
 20
103.437350
 30
0.0
 10
11.836611
 20
104.501892
 30
0.0
 10
11.675245
 20
105.563022
 30
0.0
 10
11.192792
 20
106.362781
 30
0.0
 10
10.425523
 20
106.865673
 30
0.0
 10
9.411264
 20
107.033059
 30
0.0
 10
8.401419
 20
106.865673
 30
0.0
 10
7.638556
 20
106.362781
 30
0.0
 10
7.156108
 20
105.563022
 30
0.0
 10
6.994736
 20
104.501892
 30
0.0
 10
6.994736
 20
104.501892
 30
0.0
  0
LWPOLYLINE
  5
10d
100
AcDbEntity
  8
Layer_1
 62
7
100
AcDbPolyline
 90
40
 70
0
 10
6.994736
 20
110.984170
 30
0.0
 10
7.188764
 20
110.199253
 30
0.0
 10
7.779667
 20
109.581892
 30
0.0
 10
7.100570
 20
109.581892
 30
0.0
 10
7.100570
 20
108.100228
 30
0.0
 10
11.713139
 20
108.100228
 30
0.0
 10
11.713139
 20
109.581892
 30
0.0
 10
9.446542
 20
109.581892
 30
0.0
 10
8.877528
 20
109.638901
 30
0.0
 10
8.458764
 20
109.811200
 30
0.0
 10
8.194903
 20
110.089130
 30
0.0
 10
8.105986
 20
110.463839
 30
0.0
 10
8.160658
 20
110.748994
 30
0.0
 10
8.326472
 20
110.931253
 30
0.0
 10
9.314250
 20
111.063562
 30
0.0
 10
11.713139
 20
111.063562
 30
0.0
 10
11.713139
 20
112.545228
 30
0.0
 10
9.446542
 20
112.545228
 30
0.0
 10
8.871062
 20
112.609744
 30
0.0
 10
8.449945
 20
112.783339
 30
0.0
 10
8.191522
 20
113.062313
 30
0.0
 10
8.105986
 20
113.435975
 30
0.0
 10
8.160658
 20
113.709533
 30
0.0
 10
8.326472
 20
113.894589
 30
0.0
 10
9.032028
 20
114.044531
 30
0.0
 10
9.199597
 20
114.035782
 30
0.0
 10
9.314250
 20
114.035782
 30
0.0
 10
11.713139
 20
114.035782
 30
0.0
 10
11.713139
 20
115.517449
 30
0.0
 10
8.908556
 20
115.517449
 30
0.0
 10
8.083039
 20
115.414127
 30
0.0
 10
7.479806
 20
115.102921
 30
0.0
 10
7.114811
 20
114.593484
 30
0.0
 10
6.994736
 20
113.894671
 30
0.0
 10
7.215222
 20
113.039171
 30
0.0
 10
7.867861
 20
112.377727
 30
0.0
 10
7.499646
 20
112.144162
 30
0.0
 10
7.224042
 20
111.822090
 30
0.0
 10
6.994736
 20
110.984257
 30
0.0
 10
6.994736
 20
110.984226
 30
0.0
  0
LWPOLYLINE
  5
10e
100
AcDbEntity
  8
Layer_1
 62
7
100
AcDbPolyline
 90
15
 70
0
 10
7.100570
 20
38.999881
 30
0.0
 10
11.713139
 20
40.216964
 30
0.0
 10
11.713139
 20
41.822103
 30
0.0
 10
8.546958
 20
42.598214
 30
0.0
 10
11.713139
 20
43.374325
 30
0.0
 10
11.713139
 20
44.988270
 30
0.0
 10
7.100570
 20
46.196548
 30
0.0
 10
7.100570
 20
44.767798
 30
0.0
 10
10.249111
 20
43.991687
 30
0.0
 10
7.100570
 20
43.215575
 30
0.0
 10
7.100570
 20
41.980853
 30
0.0
 10
10.284389
 20
41.204742
 30
0.0
 10
7.100570
 20
40.428631
 30
0.0
 10
7.100570
 20
38.999881
 30
0.0
 10
7.100570
 20
38.999881
 30
0.0
  0
LWPOLYLINE
  5
10f
100
AcDbEntity
  8
Layer_1
 62
7
100
AcDbPolyline
 90
15
 70
0
 10
7.100570
 20
46.787436
 30
0.0
 10
11.713139
 20
48.004520
 30
0.0
 10
11.713139
 20
49.609659
 30
0.0
 10
8.546958
 20
50.385770
 30
0.0
 10
11.713139
 20
51.161881
 30
0.0
 10
11.713139
 20
52.775845
 30
0.0
 10
7.100570
 20
53.984109
 30
0.0
 10
7.100570
 20
52.555359
 30
0.0
 10
10.249111
 20
51.779242
 30
0.0
 10
7.100570
 20
51.003131
 30
0.0
 10
7.100570
 20
49.768409
 30
0.0
 10
10.284389
 20
48.992297
 30
0.0
 10
7.100570
 20
48.216186
 30
0.0
 10
7.100570
 20
46.787436
 30
0.0
 10
7.100570
 20
46.787436
 30
0.0
  0
LWPOLYLINE
  5
110
100
AcDbEntity
  8
Layer_1
 62
7
100
AcDbPolyline
 90
15
 70
0
 10
7.100570
 20
54.575009
 30
0.0
 10
11.713139
 20
55.792095
 30
0.0
 10
11.713139
 20
57.397234
 30
0.0
 10
8.546958
 20
58.173345
 30
0.0
 10
11.713139
 20
58.949456
 30
0.0
 10
11.713139
 20
60.563414
 30
0.0
 10
7.100570
 20
61.771678
 30
0.0
 10
7.100570
 20
60.342928
 30
0.0
 10
10.249111
 20
59.566814
 30
0.0
 10
7.100570
 20
58.790706
 30
0.0
 10
7.100570
 20
57.564803
 30
0.0
 10
10.284389
 20
56.779870
 30
0.0
 10
7.100570
 20
56.012581
 30
0.0
 10
7.100570
 20
54.575009
 30
0.0
 10
7.100570
 20
54.575009
 30
0.0
  0
LWPOLYLINE
  5
111
100
AcDbEntity
  8
Layer_1
 62
7
100
AcDbPolyline
 90
26
 70
0
 10
7.100570
 20
77.152789
 30
0.0
 10
9.922792
 20
77.152789
 30
0.0
 10
10.743903
 20
77.256105
 30
0.0
 10
11.342722
 20
77.567303
 30
0.0
 10
11.712131
 20
78.081165
 30
0.0
 10
11.836611
 20
78.784384
 30
0.0
 10
11.642583
 20
79.604595
 30
0.0
 10
11.051681
 20
80.310150
 30
0.0
 10
11.713139
 20
80.310150
 30
0.0
 10
11.713139
 20
81.782995
 30
0.0
 10
7.100570
 20
81.782995
 30
0.0
 10
7.100570
 20
80.310150
 30
0.0
 10
9.384806
 20
80.310150
 30
0.0
 10
9.943236
 20
80.243718
 30
0.0
 10
10.363764
 20
80.045564
 30
0.0
 10
10.628658
 20
79.733367
 30
0.0
 10
10.716542
 20
79.322370
 30
0.0
 10
10.637167
 20
78.987234
 30
0.0
 10
10.416681
 20
78.749109
 30
0.0
 10
10.063903
 20
78.652095
 30
0.0
 10
9.261333
 20
78.625651
 30
0.0
 10
8.511681
 20
78.625651
 30
0.0
 10
7.568000
 20
78.634456
 30
0.0
 10
7.100570
 20
78.634456
 30
0.0
 10
7.100570
 20
77.152789
 30
0.0
 10
7.100570
 20
77.152789
 30
0.0
  0
LWPOLYLINE
  5
112
100
AcDbEntity
  8
Layer_1
 62
7
100
AcDbPolyline
 90
11
 70
0
 10
7.973695
 20
67.645428
 30
0.0
 10
8.036743
 20
68.001003
 30
0.0
 10
8.229458
 20
68.280428
 30
0.0
 10
8.527846
 20
68.465642
 30
0.0
 10
8.908556
 20
68.527370
 30
0.0
 10
8.908556
 20
66.613553
 30
0.0
 10
8.506677
 20
66.730695
 30
0.0
 10
8.211820
 20
66.948689
 30
0.0
 10
8.032041
 20
67.256921
 30
0.0
 10
7.973695
 20
67.645428
 30
0.0
 10
7.973695
 20
67.645428
 30
0.0
  0
LWPOLYLINE
  5
113
100
AcDbEntity
  8
Layer_1
 62
7
100
AcDbPolyline
 90
18
 70
0
 10
8.044250
 20
104.501892
 30
0.0
 10
8.132137
 20
104.928897
 30
0.0
 10
8.397028
 20
105.242728
 30
0.0
 10
8.825935
 20
105.434411
 30
0.0
 10
9.411264
 20
105.498475
 30
0.0
 10
9.999977
 20
105.434411
 30
0.0
 10
10.434320
 20
105.242728
 30
0.0
 10
10.693775
 20
104.928897
 30
0.0
 10
10.778278
 20
104.501892
 30
0.0
 10
10.693775
 20
104.069415
 30
0.0
 10
10.434320
 20
103.752225
 30
0.0
 10
9.999977
 20
103.560540
 30
0.0
 10
9.411264
 20
103.496478
 30
0.0
 10
8.825935
 20
103.560540
 30
0.0
 10
8.397028
 20
103.752225
 30
0.0
 10
8.132137
 20
104.069415
 30
0.0
 10
8.044250
 20
104.501892
 30
0.0
 10
8.044250
 20
104.501892
 30
0.0
  0
LWPOLYLINE
  5
114
100
AcDbEntity
  8
Layer_1
 62
7
100
AcDbPolyline
 90
18
 70
0
 10
8.061889
 20
73.325150
 30
0.0
 10
8.147425
 20
73.738936
 30
0.0
 10
8.405847
 20
74.039525
 30
0.0
 10
8.830346
 20
74.230181
 30
0.0
 10
9.411264
 20
74.295289
 30
0.0
 10
9.992185
 20
74.230181
 30
0.0
 10
10.416681
 20
74.039525
 30
0.0
 10
10.675106
 20
73.738936
 30
0.0
 10
10.760639
 20
73.325150
 30
0.0
 10
10.675106
 20
72.909008
 30
0.0
 10
10.416681
 20
72.601956
 30
0.0
 10
9.992185
 20
72.416736
 30
0.0
 10
9.411264
 20
72.355009
 30
0.0
 10
8.830346
 20
72.416736
 30
0.0
 10
8.405847
 20
72.601956
 30
0.0
 10
8.147425
 20
72.909008
 30
0.0
 10
8.061889
 20
73.325150
 30
0.0
 10
8.061889
 20
73.325150
 30
0.0
  0
LWPOLYLINE
  5
115
100
AcDbEntity
  8
Layer_1
 62
7
100
AcDbPolyline
 90
6
 70
0
 10
10.125639
 20
62.389039
 30
0.0
 10
11.713139
 20
62.389039
 30
0.0
 10
11.713139
 20
63.870706
 30
0.0
 10
10.125639
 20
63.870706
 30
0.0
 10
10.125639
 20
62.389039
 30
0.0
 10
10.125639
 20
62.389039
 30
0.0
  0
LWPOLYLINE
  5
116
100
AcDbEntity
  8
Layer_1
 62
7
100
AcDbPolyline
 90
6
 70
0
 10
10.125639
 20
94.244870
 30
0.0
 10
11.713139
 20
94.244870
 30
0.0
 10
11.713139
 20
95.726539
 30
0.0
 10
10.125639
 20
95.726539
 30
0.0
 10
10.125639
 20
94.244870
 30
0.0
 10
10.125639
 20
94.244870
 30
0.0
  0
ENDSEC
  0
SECTION
  2
OBJECTS
  0
DICTIONARY
  5
C
330
0
100
AcDbDictionary
  3
ACAD_GROUP
350
D
  3
ACAD_MLINESTYLE
350
17
  0
DICTIONARY
  5
D
330
C
100
AcDbDictionary
  0
DICTIONARY
  5
1A
330
C
100
AcDbDictionary
  0
DICTIONARY
  5
17
330
C
100
AcDbDictionary
  3
STANDARD
350
18
  0
DICTIONARY
  5
19
330
C
100
AcDbDictionary
  0
ENDSEC
  0
EOF
