  0
SECTION
  2
HEADER
  9
$ACADVER
  1
AC1014
  9
$HANDSEED
  5
FFFF
  9
$MEASUREMENT
 70
     1
  0
ENDSEC
  0
SECTION
  2
TABLES
  0
TABLE
  2
VPORT
  5
8
330
0
100
AcDbSymbolTable
 70
     4
  0
VPORT
  5
2E
330
8
100
AcDbSymbolTableRecord
100
AcDbViewportTableRecord
  2
*ACTIVE
 70
     0
 10
0.0
 20
0.0
 11
1.0
 21
1.0
 12
210.0
 22
148.5
 13
0.0
 23
0.0
 14
10.0
 24
10.0
 15
10.0
 25
10.0
 16
0.0
 26
0.0
 36
1.0
 17
0.0
 27
0.0
 37
0.0
 40
341.0
 41
1.24
 42
50.0
 43
0.0
 44
0.0
 50
0.0
 51
0.0
 71
     0
 72
   100
 73
     1
 74
     3
 75
     0
 76
     0
 77
     0
 78
     0
  0
ENDTAB
  0
TABLE
  2
LTYPE
  5
5
330
0
100
AcDbSymbolTable
 70
     1
  0
LTYPE
  5
14
330
5
100
AcDbSymbolTableRecord
100
AcDbLinetypeTableRecord
  2
BYBLOCK
 70
     0
  3

 72
    65
 73
     0
 40
0.0
  0
LTYPE
  5
15
330
5
100
AcDbSymbolTableRecord
100
AcDbLinetypeTableRecord
  2
BYLAYER
 70
     0
  3

 72
    65
 73
     0
 40
0.0
  0
LTYPE
  5
16
330
5
100
AcDbSymbolTableRecord
100
AcDbLinetypeTableRecord
  2
CONTINUOUS
 70
     0
  3
Solid line
 72
    65
 73
     0
 40
0.0
  0
ENDTAB
  0
TABLE
  2
LAYER
  5
2
100
AcDbSymbolTable
 70
2
  0
LAYER
  5
50
100
AcDbSymbolTableRecord
100
AcDbLayerTableRecord
  2
0
 70
0
  6
CONTINUOUS
  0
LAYER
  5
51
100
AcDbSymbolTableRecord
100
AcDbLayerTableRecord
  2
Layer_1
 70
0
  6
CONTINUOUS
  0
ENDTAB
  0
TABLE
  2
STYLE
  5
3
330
0
100
AcDbSymbolTable
 70
     1
  0
STYLE
  5
11
330
3
100
AcDbSymbolTableRecord
100
AcDbTextStyleTableRecord
  2
STANDARD
 70
     0
 40
0.0
 41
1.0
 50
0.0
 71
     0
 42
2.5
  3
txt
  4

  0
ENDTAB
  0
TABLE
  2
VIEW
  5
6
330
0
100
AcDbSymbolTable
 70
     0
  0
ENDTAB
  0
TABLE
  2
UCS
  5
7
330
0
100
AcDbSymbolTable
 70
     0
  0
ENDTAB
  0
TABLE
  2
APPID
  5
9
330
0
100
AcDbSymbolTable
 70
     2
  0
APPID
  5
12
330
9
100
AcDbSymbolTableRecord
100
AcDbRegAppTableRecord
  2
ACAD
 70
     0
  0
ENDTAB
  0
TABLE
  2
DIMSTYLE
  5
A
330
0
100
AcDbSymbolTable
 70
     1
  0
DIMSTYLE
105
27
330
A
100
AcDbSymbolTableRecord
100
AcDbDimStyleTableRecord
  2
ISO-25
 70
     0
  3

  4

  5

  6

  7

 40
1.0
 41
2.5
 42
0.625
 43
3.75
 44
1.25
 45
0.0
 46
0.0
 47
0.0
 48
0.0
140
2.5
141
2.5
142
0.0
143
0.03937007874016
144
1.0
145
0.0
146
1.0
147
0.625
 71
     0
 72
     0
 73
     0
 74
     0
 75
     0
 76
     0
 77
     1
 78
     8
170
     0
171
     3
172
     1
173
     0
174
     0
175
     0
176
     0
177
     0
178
     0
270
     2
271
     2
272
     2
273
     2
274
     3
340
11
275
     0
280
     0
281
     0
282
     0
283
     0
284
     8
285
     0
286
     0
287
     3
288
     0
  0
ENDTAB
  0
TABLE
  2
BLOCK_RECORD
  5
1
330
0
100
AcDbSymbolTable
 70
     1
  0
BLOCK_RECORD
  5
1F
330
1
100
AcDbSymbolTableRecord
100
AcDbBlockTableRecord
  2
*MODEL_SPACE
  0
BLOCK_RECORD
  5
1B
330
1
100
AcDbSymbolTableRecord
100
AcDbBlockTableRecord
  2
*PAPER_SPACE
  0
ENDTAB
  0
ENDSEC
  0
SECTION
  2
BLOCKS
  0
BLOCK
  5
20
330
1F
100
AcDbEntity
  8
0
100
AcDbBlockBegin
  2
*MODEL_SPACE
 70
     0
 10
0.0
 20
0.0
 30
0.0
  3
*MODEL_SPACE
  1

  0
ENDBLK
  5
21
330
1F
100
AcDbEntity
  8
0
100
AcDbBlockEnd
  0
BLOCK
  5
1C
330
1B
100
AcDbEntity
 67
     1
  8
0
100
AcDbBlockBegin
  2
*PAPER_SPACE
  1

  0
ENDBLK
  5
1D
330
1B
100
AcDbEntity
 67
     1
  8
0
100
AcDbBlockEnd
  0
ENDSEC
  0
SECTION
  2
ENTITIES
  0
SPLINE
  5
100
100
AcDbEntity
  8
Layer_1
 62
7
100
AcDbSpline
 70
8
 71
3
 72
8
 73
4
 74
0
 40
0
 40
0
 40
0
 40
0
 40
1
 40
1
 40
1
 40
1
 10
-135.558520
 20
-33.889574
 30
0.0
 10
-135.558520
 20
-37.713026
 30
0.0
 10
-137.598307
 20
-41.246041
 30
0.0
 10
-140.909514
 20
-43.157767
 30
0.0
  0
SPLINE
  5
101
100
AcDbEntity
  8
Layer_1
 62
7
100
AcDbSpline
 70
8
 71
3
 72
8
 73
4
 74
0
 40
0
 40
0
 40
0
 40
0
 40
1
 40
1
 40
1
 40
1
 10
-140.909514
 20
-43.157767
 30
0.0
 10
-144.220721
 20
-45.069493
 30
0.0
 10
-148.300295
 20
-45.069493
 30
0.0
 10
-151.611502
 20
-43.157767
 30
0.0
  0
SPLINE
  5
102
100
AcDbEntity
  8
Layer_1
 62
7
100
AcDbSpline
 70
8
 71
3
 72
8
 73
4
 74
0
 40
0
 40
0
 40
0
 40
0
 40
1
 40
1
 40
1
 40
1
 10
-151.611502
 20
-43.157767
 30
0.0
 10
-154.922709
 20
-41.246041
 30
0.0
 10
-156.962496
 20
-37.713026
 30
0.0
 10
-156.962496
 20
-33.889574
 30
0.0
  0
SPLINE
  5
103
100
AcDbEntity
  8
Layer_1
 62
7
100
AcDbSpline
 70
8
 71
3
 72
8
 73
4
 74
0
 40
0
 40
0
 40
0
 40
0
 40
1
 40
1
 40
1
 40
1
 10
-156.962496
 20
-33.889574
 30
0.0
 10
-156.962496
 20
-30.066122
 30
0.0
 10
-154.922709
 20
-26.533106
 30
0.0
 10
-151.611502
 20
-24.621380
 30
0.0
  0
SPLINE
  5
104
100
AcDbEntity
  8
Layer_1
 62
7
100
AcDbSpline
 70
8
 71
3
 72
8
 73
4
 74
0
 40
0
 40
0
 40
0
 40
0
 40
1
 40
1
 40
1
 40
1
 10
-151.611502
 20
-24.621380
 30
0.0
 10
-148.300295
 20
-22.709654
 30
0.0
 10
-144.220721
 20
-22.709654
 30
0.0
 10
-140.909514
 20
-24.621380
 30
0.0
  0
SPLINE
  5
105
100
AcDbEntity
  8
Layer_1
 62
7
100
AcDbSpline
 70
8
 71
3
 72
8
 73
4
 74
0
 40
0
 40
0
 40
0
 40
0
 40
1
 40
1
 40
1
 40
1
 10
-140.909514
 20
-24.621380
 30
0.0
 10
-137.598307
 20
-26.533106
 30
0.0
 10
-135.558520
 20
-30.066122
 30
0.0
 10
-135.558520
 20
-33.889574
 30
0.0
  0
LWPOLYLINE
  5
106
100
AcDbEntity
  8
Layer_1
 62
7
100
AcDbPolyline
 90
119
 70
0
 10
-61.452465
 20
-0.468272
 30
0.0
 10
-72.983010
 20
-1.616417
 30
0.0
 10
-84.677442
 20
-5.081941
 30
0.0
 10
-96.700331
 20
-11.644259
 30
0.0
 10
-109.216245
 20
-22.082559
 30
0.0
 10
-118.397957
 20
-30.643642
 30
0.0
 10
-126.347573
 20
-40.034256
 30
0.0
 10
-133.163853
 20
-50.213129
 30
0.0
 10
-138.945510
 20
-61.138760
 30
0.0
 10
-143.791325
 20
-72.769425
 30
0.0
 10
-147.800058
 20
-85.063850
 30
0.0
 10
-153.701133
 20
-111.478212
 30
0.0
 10
-157.438760
 20
-140.049627
 30
0.0
 10
-159.802900
 20
-170.446552
 30
0.0
 10
-163.570575
 20
-235.389645
 30
0.0
 10
-165.320277
 20
-292.816165
 30
0.0
 10
-166.121756
 20
-350.263547
 30
0.0
 10
-166.729482
 20
-377.973683
 30
0.0
 10
-168.366206
 20
-402.152531
 30
0.0
 10
-173.362983
 20
-429.229519
 30
0.0
 10
-184.050890
 20
-465.633627
 30
0.0
 10
-187.166755
 20
-475.486401
 30
0.0
 10
-192.053821
 20
-483.524323
 30
0.0
 10
-198.445561
 20
-490.033803
 30
0.0
 10
-206.075542
 20
-495.301935
 30
0.0
 10
-223.984381
 20
-503.260713
 30
0.0
 10
-243.648544
 20
-509.693998
 30
0.0
 10
-262.936335
 20
-516.896039
 30
0.0
 10
-271.772923
 20
-521.501998
 30
0.0
 10
-279.716009
 20
-527.160178
 30
0.0
 10
-286.499157
 20
-534.157671
 30
0.0
 10
-291.855844
 20
-542.780663
 30
0.0
 10
-295.519658
 20
-553.316247
 30
0.0
 10
-297.224118
 20
-566.051063
 30
0.0
 10
-297.481572
 20
-589.826256
 30
0.0
 10
-297.057486
 20
-613.266508
 30
0.0
 10
-294.573045
 20
-636.467063
 30
0.0
 10
-292.127266
 20
-648.007245
 30
0.0
 10
-288.649315
 20
-659.523391
 30
0.0
 10
-277.505484
 20
-675.226420
 30
0.0
 10
-264.985081
 20
-689.921677
 30
0.0
 10
-251.189609
 20
-703.608480
 30
0.0
 10
-236.220548
 20
-716.286603
 30
0.0
 10
-220.179402
 20
-727.955591
 30
0.0
 10
-203.167650
 20
-738.614540
 30
0.0
 10
-185.286773
 20
-748.263447
 30
0.0
 10
-166.638319
 20
-756.901633
 30
0.0
 10
-147.323724
 20
-764.528643
 30
0.0
 10
-127.444513
 20
-771.143799
 30
0.0
 10
-107.102166
 20
-776.746874
 30
0.0
 10
-86.398186
 20
-781.337412
 30
0.0
 10
-65.434076
 20
-784.914735
 30
0.0
 10
-44.311294
 20
-787.478389
 30
0.0
 10
-1.995772
 20
-789.562874
 30
0.0
 10
-0.365850
 20
-789.562874
 30
0.0
 10
-0.365850
 20
-789.703472
 30
0.0
 10
1.264070
 20
-789.703472
 30
0.0
 10
43.579593
 20
-787.618987
 30
0.0
 10
64.702375
 20
-785.055334
 30
0.0
 10
85.666507
 20
-781.478011
 30
0.0
 10
106.370487
 20
-776.887472
 30
0.0
 10
126.712811
 20
-771.284398
 30
0.0
 10
146.592022
 20
-764.669242
 30
0.0
 10
165.906618
 20
-757.042231
 30
0.0
 10
184.555094
 20
-748.404045
 30
0.0
 10
202.435948
 20
-738.755139
 30
0.0
 10
219.447700
 20
-728.096191
 30
0.0
 10
235.488846
 20
-716.427201
 30
0.0
 10
250.457907
 20
-703.749079
 30
0.0
 10
264.253379
 20
-690.062275
 30
0.0
 10
276.773782
 20
-675.367019
 30
0.0
 10
287.917614
 20
-659.663989
 30
0.0
 10
291.395566
 20
-648.147843
 30
0.0
 10
293.841343
 20
-636.607661
 30
0.0
 10
296.325785
 20
-613.407107
 30
0.0
 10
296.749871
 20
-589.966855
 30
0.0
 10
296.492417
 20
-566.191661
 30
0.0
 10
294.787978
 20
-553.456845
 30
0.0
 10
291.124165
 20
-542.921261
 30
0.0
 10
285.767456
 20
-534.298269
 30
0.0
 10
278.984307
 20
-527.300776
 30
0.0
 10
271.041222
 20
-521.642596
 30
0.0
 10
262.204634
 20
-517.036638
 30
0.0
 10
242.916843
 20
-509.834596
 30
0.0
 10
223.252679
 20
-503.401311
 30
0.0
 10
205.343864
 20
-495.442534
 30
0.0
 10
197.713859
 20
-490.174401
 30
0.0
 10
191.322119
 20
-483.664921
 30
0.0
 10
186.435077
 20
-475.626999
 30
0.0
 10
183.319189
 20
-465.774225
 30
0.0
 10
172.631305
 20
-429.370118
 30
0.0
 10
167.634505
 20
-402.293129
 30
0.0
 10
165.997780
 20
-378.114282
 30
0.0
 10
165.390055
 20
-350.404146
 30
0.0
 10
164.588576
 20
-292.956763
 30
0.0
 10
162.838874
 20
-235.530243
 30
0.0
 10
159.071198
 20
-170.587151
 30
0.0
 10
156.707059
 20
-140.190225
 30
0.0
 10
152.969431
 20
-111.618811
 30
0.0
 10
147.068357
 20
-85.204448
 30
0.0
 10
143.059646
 20
-72.910023
 30
0.0
 10
138.213830
 20
-61.279359
 30
0.0
 10
132.432151
 20
-50.353727
 30
0.0
 10
125.615871
 20
-40.174855
 30
0.0
 10
117.666255
 20
-30.784241
 30
0.0
 10
108.484543
 20
-22.223157
 30
0.0
 10
95.157332
 20
-11.237885
 30
0.0
 10
82.382763
 20
-4.606401
 30
0.0
 10
69.956334
 20
-1.379667
 30
0.0
 10
57.673519
 20
-0.608871
 30
0.0
 10
38.369786
 20
-2.052952
 30
0.0
 10
18.130212
 20
-3.514495
 30
0.0
 10
-0.365850
 20
-3.797960
 30
0.0
 10
-0.365850
 20
-3.657362
 30
0.0
 10
-18.861914
 20
-3.373897
 30
0.0
 10
-39.101488
 20
-1.912354
 30
0.0
 10
-58.405221
 20
-0.468272
 30
0.0
 10
-61.452465
 20
-0.468272
 30
0.0
 10
-61.452465
 20
-0.468272
 30
0.0
  0
SPLINE
  5
107
100
AcDbEntity
  8
Layer_1
 62
7
100
AcDbSpline
 70
8
 71
3
 72
8
 73
4
 74
0
 40
0
 40
0
 40
0
 40
0
 40
1
 40
1
 40
1
 40
1
 10
131.893168
 20
-39.240568
 30
0.0
 10
131.893168
 20
-43.064020
 30
0.0
 10
133.932955
 20
-46.597036
 30
0.0
 10
137.244162
 20
-48.508762
 30
0.0
  0
SPLINE
  5
108
100
AcDbEntity
  8
Layer_1
 62
7
100
AcDbSpline
 70
8
 71
3
 72
8
 73
4
 74
0
 40
0
 40
0
 40
0
 40
0
 40
1
 40
1
 40
1
 40
1
 10
137.244162
 20
-48.508762
 30
0.0
 10
140.555369
 20
-50.420488
 30
0.0
 10
144.634943
 20
-50.420488
 30
0.0
 10
147.946150
 20
-48.508762
 30
0.0
  0
SPLINE
  5
109
100
AcDbEntity
  8
Layer_1
 62
7
100
AcDbSpline
 70
8
 71
3
 72
8
 73
4
 74
0
 40
0
 40
0
 40
0
 40
0
 40
1
 40
1
 40
1
 40
1
 10
147.946150
 20
-48.508762
 30
0.0
 10
151.257357
 20
-46.597036
 30
0.0
 10
153.297144
 20
-43.064020
 30
0.0
 10
153.297144
 20
-39.240568
 30
0.0
  0
SPLINE
  5
10a
100
AcDbEntity
  8
Layer_1
 62
7
100
AcDbSpline
 70
8
 71
3
 72
8
 73
4
 74
0
 40
0
 40
0
 40
0
 40
0
 40
1
 40
1
 40
1
 40
1
 10
153.297144
 20
-39.240568
 30
0.0
 10
153.297144
 20
-35.417116
 30
0.0
 10
151.257357
 20
-31.884101
 30
0.0
 10
147.946150
 20
-29.972375
 30
0.0
  0
SPLINE
  5
10b
100
AcDbEntity
  8
Layer_1
 62
7
100
AcDbSpline
 70
8
 71
3
 72
8
 73
4
 74
0
 40
0
 40
0
 40
0
 40
0
 40
1
 40
1
 40
1
 40
1
 10
147.946150
 20
-29.972375
 30
0.0
 10
144.634943
 20
-28.060649
 30
0.0
 10
140.555369
 20
-28.060649
 30
0.0
 10
137.244162
 20
-29.972375
 30
0.0
  0
SPLINE
  5
10c
100
AcDbEntity
  8
Layer_1
 62
7
100
AcDbSpline
 70
8
 71
3
 72
8
 73
4
 74
0
 40
0
 40
0
 40
0
 40
0
 40
1
 40
1
 40
1
 40
1
 10
137.244162
 20
-29.972375
 30
0.0
 10
133.932955
 20
-31.884101
 30
0.0
 10
131.893168
 20
-35.417116
 30
0.0
 10
131.893168
 20
-39.240568
 30
0.0
  0
LWPOLYLINE
  5
10d
100
AcDbEntity
  8
Layer_1
 62
7
100
AcDbPolyline
 90
2
 70
0
 10
-135.558520
 20
-33.889574
 30
0.0
 10
-135.558520
 20
-33.889574
 30
0.0
  0
LWPOLYLINE
  5
10e
100
AcDbEntity
  8
Layer_1
 62
7
100
AcDbPolyline
 90
2
 70
0
 10
131.893168
 20
-39.240568
 30
0.0
 10
131.893168
 20
-39.240568
 30
0.0
  0
ENDSEC
  0
SECTION
  2
OBJECTS
  0
DICTIONARY
  5
C
330
0
100
AcDbDictionary
  3
ACAD_GROUP
350
D
  3
ACAD_MLINESTYLE
350
17
  0
DICTIONARY
  5
D
330
C
100
AcDbDictionary
  0
DICTIONARY
  5
1A
330
C
100
AcDbDictionary
  0
DICTIONARY
  5
17
330
C
100
AcDbDictionary
  3
STANDARD
350
18
  0
DICTIONARY
  5
19
330
C
100
AcDbDictionary
  0
ENDSEC
  0
EOF
